<svg width="60" height="60" viewBox="0 0 60 60" fill="none" xmlns="http://www.w3.org/2000/svg">
<rect x="1" y="1" width="58" height="58" rx="4" fill="#E5E5E5" fill-opacity="0.5" stroke="#999999" stroke-width="2"/>
<path fill-rule="evenodd" clip-rule="evenodd" d="M24.7076 11.7078L12.1451 24.2703V26.48L24.7076 39.0425L26.9173 36.8328L16.897 26.8124H22.7812C31.5724 26.8124 37.1716 28.7027 40.6102 32.2142C44.0543 35.7315 45.6562 41.2053 45.6562 49.1562V50.2499H48.7812V49.1562C48.7812 40.8883 47.1332 34.409 42.8429 30.0278C38.5471 25.6409 31.9276 23.6874 22.7812 23.6874H17.1474L26.9173 13.9175L24.7076 11.7078Z" fill="#6C6464"/>
<path d="M12.1451 24.2703L11.438 23.5632L11.1451 24.2703H12.1451ZM24.7076 11.7078L25.4147 11.0007L24.0005 11.0007L24.7076 11.7078ZM12.1451 26.48H11.1451L11.438 27.1871L12.1451 26.48ZM24.7076 39.0425L24.0005 39.7496H25.4147L24.7076 39.0425ZM26.9173 36.8328L27.6245 37.5399V36.1257L26.9173 36.8328ZM16.897 26.8124V25.8124L16.1899 27.5195L16.897 26.8124ZM40.6102 32.2142L39.8957 32.9139L40.6102 32.2142ZM45.6562 50.2499H44.6562L45.6562 51.2499V50.2499ZM48.7812 50.2499V51.2499L49.7812 50.2499H48.7812ZM42.8429 30.0278L42.1285 30.7275L42.8429 30.0278ZM17.1474 23.6874L16.4403 22.9803L17.1474 24.6874V23.6874ZM26.9173 13.9175L27.6245 14.6246V13.2104L26.9173 13.9175ZM12.8522 24.9774L25.4147 12.4149L24.0005 11.0007L11.438 23.5632L12.8522 24.9774ZM13.1451 26.48V24.2703H11.1451V26.48H13.1451ZM25.4147 38.3354L12.8522 25.7729L11.438 27.1871L24.0005 39.7496L25.4147 38.3354ZM26.2102 36.1257L24.0005 38.3354L25.4147 39.7496L27.6245 37.5399L26.2102 36.1257ZM16.1899 27.5195L26.2102 37.5399L27.6245 36.1257L17.6041 26.1053L16.1899 27.5195ZM22.7812 25.8124H16.897V27.8124H22.7812V25.8124ZM41.3247 31.5146C37.6119 27.7231 31.6864 25.8124 22.7812 25.8124V27.8124C31.4583 27.8124 36.7313 29.6824 39.8957 32.9139L41.3247 31.5146ZM46.6562 49.1562C46.6562 41.1036 45.0394 35.3082 41.3247 31.5146L39.8957 32.9139C43.0692 36.1547 44.6562 41.307 44.6562 49.1562H46.6562ZM46.6562 50.2499V49.1562H44.6562V50.2499H46.6562ZM48.7812 49.2499H45.6562V51.2499H48.7812V49.2499ZM47.7812 49.1562V50.2499H49.7812V49.1562H47.7812ZM42.1285 30.7275C46.1478 34.8321 47.7812 40.9895 47.7812 49.1562H49.7812C49.7812 40.7871 48.1185 33.986 43.5574 29.3282L42.1285 30.7275ZM22.7812 24.6874C31.8142 24.6874 38.1071 26.6208 42.1285 30.7275L43.5574 29.3282C38.9872 24.661 32.041 22.6874 22.7812 22.6874V24.6874ZM17.1474 24.6874H22.7812V22.6874H17.1474V24.6874ZM26.2102 13.2104L16.4403 22.9803L17.8545 24.3945L27.6245 14.6246L26.2102 13.2104ZM24.0005 12.4149L26.2102 14.6246L27.6245 13.2104L25.4147 11.0007L24.0005 12.4149Z" fill="#6C6464"/>
</svg>
