<svg width="60" height="60" viewBox="0 0 60 60" fill="none" xmlns="http://www.w3.org/2000/svg">
<rect x="1" y="1" width="58" height="58" rx="4" fill="white" fill-opacity="0.5" stroke="#999999" stroke-width="2"/>
<path fill-rule="evenodd" clip-rule="evenodd" d="M29.5281 30.4119L44.1721 45.056L45.056 44.1721L30.4119 29.5281L45.0561 14.8839L44.1722 14L29.5281 28.6442L14.8839 14L14 14.8839L28.6442 29.5281L14.0001 44.1721L14.884 45.056L29.5281 30.4119Z" fill="#6C6464"/>
<path d="M44.1721 45.056L43.1115 46.1167L44.1721 47.1773L45.2328 46.1167L44.1721 45.056ZM29.5281 30.4119L30.5887 29.3513L29.5281 28.2906L28.4674 29.3513L29.5281 30.4119ZM45.056 44.1721L46.1167 45.2328L47.1773 44.1721L46.1167 43.1115L45.056 44.1721ZM30.4119 29.5281L29.3513 28.4674L28.2906 29.5281L29.3513 30.5887L30.4119 29.5281ZM45.0561 14.8839L46.1168 15.9445L47.1774 14.8839L46.1168 13.8232L45.0561 14.8839ZM44.1722 14L45.2329 12.9393L44.1722 11.8787L43.1116 12.9393L44.1722 14ZM29.5281 28.6442L28.4674 29.7048L29.5281 30.7655L30.5887 29.7048L29.5281 28.6442ZM14.8839 14L15.9445 12.9393L14.8839 11.8787L13.8232 12.9393L14.8839 14ZM14 14.8839L12.9393 13.8232L11.8787 14.8839L12.9393 15.9445L14 14.8839ZM28.6442 29.5281L29.7048 30.5887L30.7655 29.5281L29.7048 28.4674L28.6442 29.5281ZM14.0001 44.1721L12.9394 43.1115L11.8788 44.1721L12.9394 45.2328L14.0001 44.1721ZM14.884 45.056L13.8233 46.1167L14.884 47.1773L15.9447 46.1167L14.884 45.056ZM45.2328 43.9954L30.5887 29.3513L28.4674 31.4726L43.1115 46.1167L45.2328 43.9954ZM43.9954 43.1115L43.1115 43.9954L45.2328 46.1167L46.1167 45.2328L43.9954 43.1115ZM29.3513 30.5887L43.9954 45.2328L46.1167 43.1115L31.4726 28.4674L29.3513 30.5887ZM43.9955 13.8232L29.3513 28.4674L31.4726 30.5887L46.1168 15.9445L43.9955 13.8232ZM43.1116 15.0607L43.9955 15.9445L46.1168 13.8232L45.2329 12.9393L43.1116 15.0607ZM30.5887 29.7048L45.2329 15.0607L43.1116 12.9393L28.4674 27.5835L30.5887 29.7048ZM13.8232 15.0607L28.4674 29.7048L30.5887 27.5835L15.9445 12.9393L13.8232 15.0607ZM15.0607 15.9445L15.9445 15.0607L13.8232 12.9393L12.9393 13.8232L15.0607 15.9445ZM29.7048 28.4674L15.0607 13.8232L12.9393 15.9445L27.5835 30.5887L29.7048 28.4674ZM15.0608 45.2328L29.7048 30.5887L27.5835 28.4674L12.9394 43.1115L15.0608 45.2328ZM15.9447 43.9954L15.0608 43.1115L12.9394 45.2328L13.8233 46.1167L15.9447 43.9954ZM28.4674 29.3513L13.8233 43.9954L15.9447 46.1167L30.5887 31.4726L28.4674 29.3513Z" fill="#6C6464"/>
</svg>
