<svg width="60" height="60" viewBox="0 0 60 60" fill="none" xmlns="http://www.w3.org/2000/svg">
<rect x="1" y="1" width="58" height="58" rx="4" fill="white" fill-opacity="0.5" stroke="#999999" stroke-width="2"/>
<path fill-rule="evenodd" clip-rule="evenodd" d="M37.555 40.8548L31.6921 46.7178V35.077H28.3074L28.3074 46.7178L22.4445 40.8548L20.0512 43.2481L28.8031 52H31.1964L39.9483 43.2481L37.555 40.8548ZM20.0514 16.7519L22.4447 19.1452L22.4447 19.1452L28.3076 13.2822V24.9231H31.6922V13.2822L37.5551 19.1452L39.9484 16.7519L31.1965 8L28.8033 8L20.0514 16.7519L20.0514 16.7519ZM13.2822 28.3079L24.9231 28.3079V31.6926H13.2822L19.1452 37.5555L16.7519 39.9488L8 31.1969V28.8036L16.7519 20.0517L19.1452 22.445L13.2822 28.3079ZM46.7178 28.3081L35.077 28.3081V31.6927L46.7178 31.6927L40.8548 37.5556L43.2481 39.9489L52 31.197L52 28.8037L43.2481 20.0518L40.8548 22.4451L46.7178 28.3081Z" fill="#6C6464"/>
</svg>
