<svg width="60" height="60" viewBox="0 0 60 60" fill="none" xmlns="http://www.w3.org/2000/svg">
<rect x="1" y="1" width="58" height="58" rx="4" fill="white" fill-opacity="0.5" stroke="#999999" stroke-width="2"/>
<path fill-rule="evenodd" clip-rule="evenodd" d="M10.4331 13.5595L11.7494 12.5H13.9496V22.25H11.6486V15.074L10.4331 15.9872V13.5595ZM19.25 15.75H51.75V19H19.25V15.75ZM19.25 28.75H51.75V32H19.25V28.75ZM51.75 41.75H19.25V45H51.75V41.75ZM15.2542 30.6583L15.2543 30.6583C15.3269 30.5598 15.3985 30.4626 15.467 30.3622C15.5703 30.2177 15.6585 30.0631 15.7302 29.9007C15.8082 29.7286 15.8681 29.5489 15.909 29.3644C15.9544 29.1508 15.9762 28.9328 15.974 28.7144C15.9744 28.3245 15.9118 27.9371 15.7887 27.5672C15.6653 27.1806 15.4579 26.826 15.1815 26.5288C14.9051 26.2316 14.5664 25.9991 14.1897 25.8479C13.7237 25.6588 13.2235 25.5681 12.7207 25.5814C12.21 25.5676 11.7023 25.6641 11.2322 25.8642C10.8522 26.0312 10.5121 26.2771 10.2345 26.5857C9.98459 26.8699 9.79447 27.2014 9.6755 27.5607C9.56182 27.8991 9.50259 28.2534 9.5 28.6104V28.7697H12.1325V28.6104C12.1337 28.5224 12.1468 28.4349 12.1715 28.3504C12.1918 28.2607 12.2293 28.1757 12.282 28.1002C12.3296 28.0283 12.3929 27.9683 12.4672 27.9247C12.5539 27.8807 12.6496 27.8578 12.7467 27.8578C12.8439 27.8578 12.9396 27.8807 13.0262 27.9247C13.1005 27.9755 13.1627 28.0421 13.2083 28.1197C13.2575 28.2006 13.2917 28.2898 13.309 28.3829C13.3272 28.4717 13.337 28.562 13.3383 28.6527C13.3447 28.8844 13.2945 29.1143 13.192 29.3222C13.0788 29.531 12.9484 29.7299 12.802 29.9169L9.552 33.6154L9.513 33.6577V35.4127H15.974V33.1377H13.049L15.1615 30.7847C15.1925 30.7421 15.2234 30.7001 15.2542 30.6583ZM15.0412 43.1896C15.1896 43.2922 15.3212 43.4172 15.4312 43.5601C15.5882 43.7707 15.7141 44.0027 15.805 44.2491C15.9285 44.6018 15.9858 44.9742 15.974 45.3476C15.9725 45.6941 15.9177 46.0383 15.8115 46.3681C15.6969 46.7182 15.5085 47.0396 15.259 47.3106C14.9695 47.6106 14.6178 47.8435 14.2287 47.9931C13.7298 48.1772 13.2003 48.2643 12.6687 48.2499C12.2935 48.2517 11.9201 48.198 11.5605 48.0906C11.2622 48.0011 10.9794 47.8663 10.722 47.6909C10.4935 47.5342 10.2935 47.3396 10.1305 47.1156C9.98155 46.9133 9.85514 46.6954 9.7535 46.4656C9.66566 46.2562 9.59924 46.0384 9.55525 45.8156C9.52028 45.6302 9.50179 45.4421 9.5 45.2534V45.0941H12.1455V45.2534C12.146 45.343 12.1558 45.4323 12.1747 45.5199C12.1913 45.6056 12.2244 45.6873 12.2723 45.7604C12.3133 45.8313 12.3728 45.8897 12.4445 45.9294C12.5234 45.968 12.6093 45.9901 12.697 45.9946C12.7847 45.9991 12.8724 45.9857 12.9547 45.9554C13.0239 45.9269 13.086 45.8836 13.1367 45.8286C13.1978 45.7571 13.2442 45.6743 13.2732 45.5849C13.3125 45.452 13.3311 45.3139 13.3285 45.1754C13.3351 44.996 13.3109 44.8168 13.257 44.6456C13.2234 44.5469 13.1666 44.4577 13.0912 44.3856C13.0349 44.3389 12.9679 44.3065 12.8962 44.2914C12.8135 44.2779 12.7298 44.2703 12.646 44.2686H12.1227V42.1724H12.6687C12.7449 42.1716 12.8204 42.1596 12.893 42.1366C12.9709 42.1163 13.0431 42.0785 13.1042 42.0261C13.1728 41.967 13.2263 41.8923 13.2603 41.8084C13.3112 41.6838 13.3345 41.5496 13.3285 41.4151C13.3311 41.3045 13.3134 41.1944 13.2765 41.0901C13.2493 41.0129 13.2048 40.9429 13.1465 40.8854C13.0941 40.8332 13.0309 40.7932 12.9612 40.7684C12.8795 40.738 12.7925 40.7243 12.7054 40.7282C12.6183 40.7321 12.5329 40.7535 12.4542 40.7911C12.3819 40.8337 12.3207 40.8927 12.2755 40.9634C12.2301 41.0388 12.1971 41.1211 12.178 41.2071C12.1568 41.2933 12.1458 41.3816 12.1455 41.4704V41.6296H9.5V41.4704C9.50849 41.0871 9.58554 40.7085 9.7275 40.3524C9.82239 40.1232 9.94228 39.9052 10.085 39.7024C10.2449 39.4707 10.4414 39.2666 10.6667 39.0979C10.9241 38.9067 11.212 38.7605 11.5182 38.6656C11.8902 38.5483 12.2788 38.4923 12.6687 38.4999C13.0447 38.4956 13.4198 38.5349 13.7867 38.6169C14.0848 38.6868 14.3723 38.7961 14.6415 38.9419C14.8758 39.0652 15.0887 39.2254 15.272 39.4164C15.4328 39.5836 15.5706 39.7716 15.6815 39.9754C15.7814 40.1586 15.8568 40.3542 15.9057 40.5571C15.9498 40.7358 15.9727 40.9191 15.974 41.1031C15.9842 41.4608 15.9257 41.8172 15.8017 42.1529C15.7113 42.3918 15.5865 42.6162 15.4312 42.8191C15.3203 42.9613 15.1889 43.0861 15.0412 43.1896Z" fill="#6C6464"/>
<path d="M11.7494 12.5V12.35H11.6965L11.6553 12.3832L11.7494 12.5ZM10.4331 13.5595L10.339 13.4427L10.2831 13.4877V13.5595H10.4331ZM13.9496 12.5H14.0996V12.35H13.9496V12.5ZM13.9496 22.25V22.4H14.0996V22.25H13.9496ZM11.6486 22.25H11.4986V22.4H11.6486V22.25ZM11.6486 15.074H11.7986V14.7737L11.5585 14.9541L11.6486 15.074ZM10.4331 15.9872H10.2831V16.2876L10.5232 16.1072L10.4331 15.9872ZM51.75 15.75H51.9V15.6H51.75V15.75ZM19.25 15.75V15.6H19.1V15.75H19.25ZM51.75 19V19.15H51.9V19H51.75ZM19.25 19H19.1V19.15H19.25V19ZM51.75 28.75H51.9V28.6H51.75V28.75ZM19.25 28.75V28.6H19.1V28.75H19.25ZM51.75 32V32.15H51.9V32H51.75ZM19.25 32H19.1V32.15H19.25V32ZM19.25 41.75V41.6H19.1V41.75H19.25ZM51.75 41.75H51.9V41.6H51.75V41.75ZM19.25 45H19.1V45.15H19.25V45ZM51.75 45V45.15H51.9V45H51.75ZM15.2543 30.6583L15.3715 30.7521L15.375 30.7473L15.2543 30.6583ZM15.2542 30.6583L15.137 30.5645L15.1335 30.5693L15.2542 30.6583ZM15.467 30.3622L15.345 30.2749L15.3431 30.2777L15.467 30.3622ZM15.7302 29.9007L15.5936 29.8388L15.593 29.8401L15.7302 29.9007ZM15.909 29.3644L16.0554 29.3969L16.0557 29.3956L15.909 29.3644ZM15.974 28.7144L15.824 28.7143L15.824 28.716L15.974 28.7144ZM15.7887 27.5672L15.6459 27.6128L15.6464 27.6145L15.7887 27.5672ZM14.1897 25.8479L14.1334 25.9869L14.1339 25.9871L14.1897 25.8479ZM12.7207 25.5814L12.7167 25.7316L12.7247 25.7314L12.7207 25.5814ZM11.2322 25.8642L11.1735 25.7262L11.1719 25.7269L11.2322 25.8642ZM10.2345 26.5857L10.123 26.4854L10.1219 26.4866L10.2345 26.5857ZM9.6755 27.5607L9.81769 27.6084L9.81789 27.6078L9.6755 27.5607ZM9.5 28.6104L9.35 28.6093V28.6104H9.5ZM9.5 28.7697H9.35V28.9197H9.5V28.7697ZM12.1325 28.7697V28.9197H12.2825V28.7697H12.1325ZM12.1325 28.6104L11.9825 28.6084V28.6104H12.1325ZM12.1715 28.3504L12.3158 28.3926L12.3178 28.3835L12.1715 28.3504ZM12.282 28.1002L12.4051 28.186L12.4071 28.183L12.282 28.1002ZM12.4672 27.9247L12.3992 27.7907L12.3913 27.7953L12.4672 27.9247ZM13.0262 27.9247L13.1109 27.8009L13.1029 27.7954L13.0941 27.7909L13.0262 27.9247ZM13.2083 28.1197L13.0789 28.1956L13.0802 28.1977L13.2083 28.1197ZM13.309 28.3829L13.1615 28.4104L13.162 28.413L13.309 28.3829ZM13.3383 28.6527L13.1883 28.6548L13.1883 28.6569L13.3383 28.6527ZM13.192 29.3222L13.324 29.3937L13.3265 29.3885L13.192 29.3222ZM12.802 29.9169L12.9149 30.0161L12.9201 30.0094L12.802 29.9169ZM9.552 33.6154L9.66226 33.7172L9.66468 33.7144L9.552 33.6154ZM9.513 33.6577L9.40278 33.5559L9.363 33.599V33.6577H9.513ZM9.513 35.4127H9.363V35.5627H9.513V35.4127ZM15.974 35.4127V35.5627H16.124V35.4127H15.974ZM15.974 33.1377H16.124V32.9877H15.974V33.1377ZM13.049 33.1377L12.9374 33.0375L12.7127 33.2877H13.049V33.1377ZM15.1615 30.7847L15.2731 30.8849L15.2783 30.8792L15.2828 30.8729L15.1615 30.7847ZM15.4312 43.5601L15.5515 43.4705L15.5501 43.4686L15.4312 43.5601ZM15.0412 43.1896L14.9551 43.0668L14.7787 43.1905L14.9559 43.313L15.0412 43.1896ZM15.805 44.2491L15.9466 44.1996L15.9457 44.1972L15.805 44.2491ZM15.974 45.3476L15.824 45.3429L15.824 45.347L15.974 45.3476ZM15.8115 46.3681L15.9541 46.4148L15.9543 46.4141L15.8115 46.3681ZM15.259 47.3106L15.367 47.4148L15.3694 47.4122L15.259 47.3106ZM14.2287 47.9931L14.2807 48.1339L14.2826 48.1331L14.2287 47.9931ZM12.6687 48.2499L12.6728 48.0999L12.668 48.0999L12.6687 48.2499ZM11.5605 48.0906L11.5174 48.2343L11.5176 48.2344L11.5605 48.0906ZM10.722 47.6909L10.6372 47.8146L10.6375 47.8148L10.722 47.6909ZM10.1305 47.1156L10.2518 47.0274L10.2513 47.0267L10.1305 47.1156ZM9.7535 46.4656L9.61515 46.5237L9.61632 46.5263L9.7535 46.4656ZM9.55525 45.8156L9.40784 45.8434L9.40809 45.8447L9.55525 45.8156ZM9.5 45.2534H9.34999L9.35001 45.2548L9.5 45.2534ZM9.5 45.0941V44.9441H9.35V45.0941H9.5ZM12.1455 45.0941H12.2955V44.9441H12.1455V45.0941ZM12.1455 45.2534L11.9955 45.2534L11.9955 45.2543L12.1455 45.2534ZM12.1747 45.5199L12.3221 45.4915L12.3214 45.4882L12.1747 45.5199ZM12.2723 45.7604L12.4023 45.6851L12.3977 45.6782L12.2723 45.7604ZM12.4445 45.9294L12.3718 46.0608L12.3786 46.0641L12.4445 45.9294ZM12.697 45.9946L12.6893 46.1444L12.6893 46.1444L12.697 45.9946ZM12.9547 45.9554L13.0066 46.0962L13.0119 46.0941L12.9547 45.9554ZM13.1367 45.8286L13.2471 45.9304L13.2508 45.9261L13.1367 45.8286ZM13.2732 45.5849L13.416 45.6312L13.4171 45.6274L13.2732 45.5849ZM13.3285 45.1754L13.1784 45.1698L13.1785 45.1782L13.3285 45.1754ZM13.257 44.6456L13.4001 44.6005L13.399 44.5973L13.257 44.6456ZM13.0912 44.3856L13.1953 44.277L13.187 44.2702L13.0912 44.3856ZM12.8962 44.2914L12.9273 44.1444L12.9203 44.1433L12.8962 44.2914ZM12.646 44.2686L12.649 44.1186H12.646V44.2686ZM12.1227 44.2686H11.9727V44.4186H12.1227V44.2686ZM12.1227 42.1724V42.0224H11.9727V42.1724H12.1227ZM12.6687 42.1724L12.6687 42.3224L12.6703 42.3224L12.6687 42.1724ZM12.893 42.1366L12.8551 41.9913L12.8478 41.9936L12.893 42.1366ZM13.1042 42.0261L13.2019 42.14L13.2022 42.1397L13.1042 42.0261ZM13.2603 41.8084L13.1214 41.7516L13.1212 41.7522L13.2603 41.8084ZM13.3285 41.4151L13.1782 41.4116L13.1786 41.4218L13.3285 41.4151ZM13.2765 41.0901L13.135 41.14L13.1351 41.1402L13.2765 41.0901ZM13.1465 40.8854L13.0406 40.9916L13.0412 40.9922L13.1465 40.8854ZM12.9612 40.7684L12.9089 40.909L12.9108 40.9097L12.9612 40.7684ZM12.7054 40.7282L12.6987 40.5784L12.6987 40.5784L12.7054 40.7282ZM12.4542 40.7911L12.3893 40.6553L12.3782 40.6618L12.4542 40.7911ZM12.2755 40.9634L12.1491 40.8825L12.147 40.886L12.2755 40.9634ZM12.178 41.2071L12.3237 41.243L12.3244 41.2397L12.178 41.2071ZM12.1455 41.4704L11.9955 41.4698V41.4704H12.1455ZM12.1455 41.6296V41.7796H12.2955V41.6296H12.1455ZM9.5 41.6296H9.35V41.7796H9.5V41.6296ZM9.5 41.4704L9.35 41.4671V41.4704H9.5ZM9.7275 40.3524L9.5889 40.295L9.58816 40.2968L9.7275 40.3524ZM10.085 39.7024L10.2077 39.7887L10.2084 39.7876L10.085 39.7024ZM10.6667 39.0979L10.5773 38.9775L10.5769 38.9778L10.6667 39.0979ZM11.5182 38.6656L11.5626 38.8089L11.5634 38.8087L11.5182 38.6656ZM12.6687 38.4999L12.6659 38.6499L12.6704 38.6499L12.6687 38.4999ZM13.7867 38.6169L13.821 38.4708L13.8195 38.4705L13.7867 38.6169ZM14.6415 38.9419L14.5701 39.0738L14.5716 39.0746L14.6415 38.9419ZM15.272 39.4164L15.1638 39.5203L15.1639 39.5204L15.272 39.4164ZM15.6815 39.9754L15.5498 40.0471L15.5498 40.0472L15.6815 39.9754ZM15.9057 40.5571L15.7599 40.5923L15.7601 40.5931L15.9057 40.5571ZM15.974 41.1031L15.824 41.1042L15.8241 41.1074L15.974 41.1031ZM15.8017 42.1529L15.942 42.206L15.9425 42.2048L15.8017 42.1529ZM15.4312 42.8191L15.5495 42.9114L15.5504 42.9103L15.4312 42.8191ZM11.6553 12.3832L10.339 13.4427L10.5272 13.6763L11.8434 12.6168L11.6553 12.3832ZM13.9496 12.35H11.7494V12.65H13.9496V12.35ZM14.0996 22.25V12.5H13.7996V22.25H14.0996ZM11.6486 22.4H13.9496V22.1H11.6486V22.4ZM11.4986 15.074V22.25H11.7986V15.074H11.4986ZM10.5232 16.1072L11.7387 15.1939L11.5585 14.9541L10.343 15.8673L10.5232 16.1072ZM10.2831 13.5595V15.9872H10.5831V13.5595H10.2831ZM51.75 15.6H19.25V15.9H51.75V15.6ZM51.9 19V15.75H51.6V19H51.9ZM19.25 19.15H51.75V18.85H19.25V19.15ZM19.1 15.75V19H19.4V15.75H19.1ZM51.75 28.6H19.25V28.9H51.75V28.6ZM51.9 32V28.75H51.6V32H51.9ZM19.25 32.15H51.75V31.85H19.25V32.15ZM19.1 28.75V32H19.4V28.75H19.1ZM19.25 41.9H51.75V41.6H19.25V41.9ZM19.4 45V41.75H19.1V45H19.4ZM51.75 44.85H19.25V45.15H51.75V44.85ZM51.6 41.75V45H51.9V41.75H51.6ZM15.1371 30.5646L15.1371 30.5646L15.3714 30.752L15.3714 30.752L15.1371 30.5646ZM15.3431 30.2777C15.2764 30.3754 15.2064 30.4704 15.1335 30.5693L15.375 30.7473C15.4473 30.6492 15.5207 30.5498 15.5909 30.4467L15.3431 30.2777ZM15.593 29.8401C15.5254 29.9931 15.4423 30.1388 15.345 30.2749L15.589 30.4494C15.6983 30.2967 15.7916 30.1331 15.8675 29.9613L15.593 29.8401ZM15.7626 29.332C15.7239 29.5063 15.6673 29.6761 15.5936 29.8388L15.8669 29.9626C15.9491 29.781 16.0123 29.5915 16.0554 29.3969L15.7626 29.332ZM15.824 28.716C15.8261 28.9234 15.8054 29.1304 15.7623 29.3332L16.0557 29.3956C16.1034 29.1712 16.1263 28.9423 16.124 28.7129L15.824 28.716ZM15.6464 27.6145C15.7644 27.9692 15.8244 28.3405 15.824 28.7143L16.124 28.7146C16.1244 28.3085 16.0592 27.9051 15.9311 27.5198L15.6464 27.6145ZM15.0717 26.6309C15.333 26.9119 15.5291 27.2472 15.6459 27.6128L15.9316 27.5215C15.8014 27.1139 15.5828 26.74 15.2913 26.4266L15.0717 26.6309ZM14.1339 25.9871C14.4901 26.1301 14.8103 26.3499 15.0717 26.6309L15.2913 26.4266C14.9999 26.1132 14.6428 25.8681 14.2456 25.7087L14.1339 25.9871ZM12.7247 25.7314C13.2069 25.7186 13.6864 25.8056 14.1334 25.9869L14.2461 25.7089C13.7609 25.5121 13.2402 25.4176 12.7168 25.4315L12.7247 25.7314ZM11.291 26.0022C11.7413 25.8105 12.2275 25.7182 12.7167 25.7314L12.7248 25.4315C12.1925 25.4171 11.6634 25.5176 11.1735 25.7262L11.291 26.0022ZM10.346 26.686C10.6094 26.3933 10.9321 26.1599 11.2926 26.0015L11.1719 25.7269C10.7724 25.9024 10.4148 26.161 10.123 26.4854L10.346 26.686ZM9.81789 27.6078C9.93053 27.2677 10.1105 26.9538 10.3471 26.6847L10.1219 26.4866C9.85864 26.7859 9.65841 27.1352 9.53311 27.5135L9.81789 27.6078ZM9.65 28.6115C9.65247 28.2704 9.70907 27.9318 9.81769 27.6084L9.53331 27.5129C9.41458 27.8664 9.3527 28.2365 9.35 28.6093L9.65 28.6115ZM9.65 28.7697V28.6104H9.35V28.7697H9.65ZM12.1325 28.6197H9.5V28.9197H12.1325V28.6197ZM11.9825 28.6104V28.7697H12.2825V28.6104H11.9825ZM12.0275 28.3084C11.999 28.4059 11.9839 28.5068 11.9825 28.6084L12.2825 28.6125C12.2835 28.538 12.2946 28.464 12.3155 28.3925L12.0275 28.3084ZM12.159 28.0144C12.0952 28.1058 12.0498 28.2086 12.0252 28.3173L12.3178 28.3835C12.3338 28.3127 12.3634 28.2456 12.405 28.186L12.159 28.0144ZM12.3913 27.7953C12.2973 27.8505 12.2171 27.9265 12.1569 28.0174L12.4071 28.183C12.442 28.1302 12.4886 28.0861 12.5432 28.054L12.3913 27.7953ZM12.7467 27.7078C12.626 27.7078 12.507 27.7363 12.3994 27.7909L12.5351 28.0584C12.6007 28.0252 12.6732 28.0078 12.7467 28.0078V27.7078ZM13.0941 27.7909C12.9865 27.7363 12.8675 27.7078 12.7467 27.7078V28.0078C12.8203 28.0078 12.8928 28.0252 12.9584 28.0584L13.0941 27.7909ZM13.3376 28.0437C13.2809 27.9471 13.2034 27.8641 13.1109 27.8009L12.9416 28.0485C12.9976 28.0868 13.0445 28.1371 13.0789 28.1956L13.3376 28.0437ZM13.4565 28.3555C13.4358 28.2445 13.3951 28.1381 13.3363 28.0416L13.0802 28.1977C13.12 28.2631 13.1475 28.3351 13.1615 28.4104L13.4565 28.3555ZM13.4882 28.6506C13.4868 28.5505 13.476 28.4509 13.456 28.3528L13.162 28.413C13.1783 28.4926 13.1871 28.5736 13.1883 28.6548L13.4882 28.6506ZM13.3265 29.3885C13.4399 29.1587 13.4954 28.9046 13.4882 28.6485L13.1883 28.6569C13.1941 28.8642 13.1492 29.0698 13.0575 29.2558L13.3265 29.3885ZM12.9201 30.0094C13.0717 29.8158 13.2067 29.6098 13.3239 29.3937L13.0601 29.2507C12.951 29.4521 12.8251 29.6441 12.6839 29.8245L12.9201 30.0094ZM9.66468 33.7144L12.9147 30.0159L12.6893 29.8179L9.43932 33.5164L9.66468 33.7144ZM9.62322 33.7594L9.66222 33.7172L9.44178 33.5137L9.40278 33.5559L9.62322 33.7594ZM9.663 35.4127V33.6577H9.363V35.4127H9.663ZM15.974 35.2627H9.513V35.5627H15.974V35.2627ZM15.824 33.1377V35.4127H16.124V33.1377H15.824ZM13.049 33.2877H15.974V32.9877H13.049V33.2877ZM15.0499 30.6845L12.9374 33.0375L13.1606 33.2379L15.2731 30.8849L15.0499 30.6845ZM15.1335 30.5693C15.1028 30.611 15.0715 30.6534 15.0402 30.6965L15.2828 30.8729C15.3135 30.8308 15.3441 30.7892 15.375 30.7473L15.1335 30.5693ZM15.5501 43.4686C15.4306 43.3134 15.2877 43.1777 15.1266 43.0663L14.9559 43.313C15.0915 43.4068 15.2118 43.521 15.3124 43.6517L15.5501 43.4686ZM15.9457 44.1972C15.8498 43.9373 15.7171 43.6926 15.5515 43.4705L15.311 43.6498C15.4594 43.8488 15.5783 44.0682 15.6643 44.3011L15.9457 44.1972ZM16.1239 45.3523C16.1363 44.9604 16.0761 44.5696 15.9466 44.1996L15.6634 44.2987C15.7808 44.6339 15.8352 44.9879 15.8241 45.3429L16.1239 45.3523ZM15.9543 46.4141C16.0651 46.0696 16.1224 45.7102 16.124 45.3483L15.824 45.347C15.8225 45.6781 15.7702 46.007 15.6687 46.3222L15.9543 46.4141ZM15.3694 47.4122C15.6334 47.1254 15.8328 46.7853 15.9541 46.4148L15.6689 46.3215C15.561 46.6511 15.3836 46.9538 15.1486 47.209L15.3694 47.4122ZM14.2826 48.1331C14.6921 47.9757 15.0622 47.7305 15.3669 47.4148L15.1511 47.2065C14.8768 47.4907 14.5436 47.7114 14.1749 47.8531L14.2826 48.1331ZM12.6647 48.3998C13.2154 48.4148 13.7638 48.3245 14.2807 48.1339L14.1768 47.8524C13.6958 48.0298 13.1853 48.1139 12.6728 48.0999L12.6647 48.3998ZM11.5176 48.2344C11.8913 48.346 12.2794 48.4017 12.6695 48.3999L12.668 48.0999C12.3076 48.1016 11.9488 48.0501 11.6034 47.9469L11.5176 48.2344ZM10.6375 47.8148C10.9076 47.9989 11.2044 48.1403 11.5174 48.2343L11.6036 47.947C11.32 47.8618 11.0512 47.7337 10.8065 47.5669L10.6375 47.8148ZM10.0092 47.2039C10.1822 47.4417 10.3946 47.6482 10.6372 47.8146L10.8068 47.5672C10.5925 47.4201 10.4047 47.2376 10.2518 47.0274L10.0092 47.2039ZM9.61632 46.5263C9.72238 46.766 9.85429 46.9935 10.0097 47.2046L10.2513 47.0267C10.1088 46.8332 9.9879 46.6247 9.89068 46.4049L9.61632 46.5263ZM9.40809 45.8447C9.45404 46.0774 9.52342 46.3049 9.61517 46.5236L9.89183 46.4076C9.8079 46.2075 9.74444 45.9994 9.70241 45.7866L9.40809 45.8447ZM9.35001 45.2548C9.35188 45.4523 9.37124 45.6493 9.40785 45.8434L9.70265 45.7878C9.66932 45.6111 9.6517 45.4318 9.64999 45.2519L9.35001 45.2548ZM9.35 45.0941V45.2534H9.65V45.0941H9.35ZM12.1455 44.9441H9.5V45.2441H12.1455V44.9441ZM12.2955 45.2534V45.0941H11.9955V45.2534H12.2955ZM12.3214 45.4882C12.3046 45.4107 12.296 45.3317 12.2955 45.2525L11.9955 45.2543C11.9961 45.3542 12.007 45.4538 12.0281 45.5515L12.3214 45.4882ZM12.3977 45.6782C12.3606 45.6215 12.3349 45.5581 12.322 45.4915L12.0275 45.5482C12.0477 45.6532 12.0882 45.7532 12.1468 45.8426L12.3977 45.6782ZM12.5171 45.7981C12.4693 45.7716 12.4295 45.7326 12.4021 45.6853L12.1424 45.8355C12.1971 45.93 12.2764 46.0078 12.3719 46.0606L12.5171 45.7981ZM12.7046 45.8448C12.6371 45.8414 12.5711 45.8243 12.5104 45.7946L12.3786 46.0641C12.4757 46.1116 12.5814 46.1389 12.6893 46.1444L12.7046 45.8448ZM12.9029 45.8146C12.8395 45.838 12.7721 45.8482 12.7046 45.8448L12.6893 46.1444C12.7973 46.1499 12.9052 46.1335 13.0066 46.0961L12.9029 45.8146ZM13.0265 45.727C12.9906 45.7659 12.9466 45.7965 12.8976 45.8167L13.0119 46.0941C13.1012 46.0573 13.1815 46.0014 13.247 45.9303L13.0265 45.727ZM13.1306 45.5386C13.1076 45.6092 13.071 45.6747 13.0227 45.7312L13.2508 45.9261C13.3247 45.8396 13.3808 45.7394 13.4159 45.6312L13.1306 45.5386ZM13.1785 45.1782C13.1809 45.3014 13.1643 45.4242 13.1294 45.5424L13.4171 45.6274C13.4607 45.4798 13.4814 45.3264 13.4785 45.1725L13.1785 45.1782ZM13.1139 44.6907C13.1627 44.8455 13.1846 45.0076 13.1786 45.1698L13.4784 45.1809C13.4857 44.9844 13.4592 44.7881 13.4001 44.6005L13.1139 44.6907ZM12.9875 44.494C13.0454 44.5494 13.0892 44.618 13.115 44.694L13.399 44.5973C13.3576 44.4758 13.2877 44.3661 13.195 44.2773L12.9875 44.494ZM12.8653 44.4381C12.9131 44.4482 12.9578 44.4699 12.9955 44.5011L13.187 44.2702C13.1119 44.2079 13.0227 44.1648 12.9272 44.1446L12.8653 44.4381ZM12.643 44.4186C12.7198 44.4202 12.7964 44.4271 12.8722 44.4394L12.9203 44.1433C12.8306 44.1287 12.7399 44.1205 12.649 44.1187L12.643 44.4186ZM12.1227 44.4186H12.646V44.1186H12.1227V44.4186ZM11.9727 42.1724V44.2686H12.2727V42.1724H11.9727ZM12.6687 42.0224H12.1227V42.3224H12.6687V42.0224ZM12.8478 41.9936C12.7894 42.0121 12.7285 42.0218 12.6672 42.0224L12.6703 42.3224C12.7612 42.3214 12.8515 42.3071 12.9382 42.2797L12.8478 41.9936ZM13.0066 41.9123C12.9628 41.9498 12.911 41.9769 12.8552 41.9915L12.9308 42.2818C13.0308 42.2557 13.1235 42.2072 13.2019 42.14L13.0066 41.9123ZM13.1212 41.7522C13.0962 41.814 13.0568 41.869 13.0063 41.9125L13.2022 42.1397C13.2889 42.065 13.3565 41.9707 13.3993 41.8646L13.1212 41.7522ZM13.1786 41.4218C13.1837 41.5346 13.1641 41.6471 13.1214 41.7516L13.3991 41.8652C13.4583 41.7205 13.4853 41.5646 13.4784 41.4084L13.1786 41.4218ZM13.1351 41.1402C13.166 41.2273 13.1807 41.3193 13.1785 41.4116L13.4785 41.4186C13.4814 41.2898 13.4609 41.1615 13.4179 41.04L13.1351 41.1402ZM13.0412 40.9922C13.0833 41.0337 13.1154 41.0842 13.135 41.14L13.418 41.0402C13.3832 40.9415 13.3263 40.8521 13.2518 40.7786L13.0412 40.9922ZM12.9108 40.9097C12.9596 40.9271 13.0039 40.955 13.0406 40.9916L13.2524 40.7792C13.1844 40.7113 13.1022 40.6594 13.0116 40.6271L12.9108 40.9097ZM12.7122 40.8781C12.7792 40.8751 12.8461 40.8856 12.9089 40.909L13.0136 40.6278C12.913 40.5904 12.8059 40.5736 12.6987 40.5784L12.7122 40.8781ZM12.5189 40.9265C12.5794 40.8975 12.6452 40.8811 12.7122 40.8781L12.6987 40.5784C12.5915 40.5832 12.4864 40.6095 12.3896 40.6558L12.5189 40.9265ZM12.4019 41.0442C12.4344 40.9934 12.4784 40.951 12.5303 40.9204L12.3782 40.6618C12.2855 40.7164 12.207 40.792 12.1491 40.8826L12.4019 41.0442ZM12.3244 41.2397C12.34 41.1695 12.3669 41.1023 12.404 41.0408L12.147 40.886C12.0932 40.9753 12.0542 41.0728 12.0316 41.1746L12.3244 41.2397ZM12.2955 41.471C12.2958 41.3941 12.3052 41.3176 12.3236 41.243L12.0324 41.1712C12.0083 41.2689 11.9959 41.3692 11.9955 41.4698L12.2955 41.471ZM12.2955 41.6296V41.4704H11.9955V41.6296H12.2955ZM9.5 41.7796H12.1455V41.4796H9.5V41.7796ZM9.35 41.4704V41.6296H9.65V41.4704H9.35ZM9.58816 40.2968C9.43957 40.6696 9.35892 41.0659 9.35004 41.4671L9.64996 41.4737C9.65805 41.1083 9.7315 40.7474 9.86684 40.4079L9.58816 40.2968ZM9.96232 39.6161C9.81325 39.8279 9.68802 40.0556 9.58891 40.295L9.86609 40.4098C9.95675 40.1908 10.0713 39.9825 10.2077 39.7887L9.96232 39.6161ZM10.5769 38.9778C10.3385 39.1562 10.1307 39.3721 9.96155 39.6172L10.2084 39.7876C10.3591 39.5693 10.5443 39.3769 10.7566 39.218L10.5769 38.9778ZM11.4739 38.5223C11.1514 38.6222 10.8482 38.7761 10.5773 38.9775L10.7562 39.2183C10.9999 39.0372 11.2726 38.8988 11.5626 38.8089L11.4739 38.5223ZM12.6716 38.3499C12.2654 38.3421 11.8606 38.4004 11.4731 38.5226L11.5634 38.8087C11.9198 38.6963 12.2922 38.6426 12.6659 38.6498L12.6716 38.3499ZM13.8195 38.4705C13.4413 38.386 13.0546 38.3455 12.6671 38.3499L12.6704 38.6499C13.0348 38.6458 13.3984 38.6838 13.754 38.7633L13.8195 38.4705ZM14.7129 38.81C14.432 38.6578 14.132 38.5438 13.821 38.4708L13.7525 38.7629C14.0376 38.8298 14.3126 38.9343 14.5701 39.0738L14.7129 38.81ZM15.3802 39.3125C15.1857 39.1099 14.9599 38.9399 14.7114 38.8091L14.5716 39.0746C14.7917 39.1904 14.9916 39.3409 15.1638 39.5203L15.3802 39.3125ZM15.8132 39.9037C15.6959 39.6881 15.5502 39.4893 15.3801 39.3124L15.1639 39.5204C15.3154 39.6779 15.4452 39.8551 15.5498 40.0471L15.8132 39.9037ZM16.0516 40.522C15.9995 40.3063 15.9194 40.0984 15.8132 39.9036L15.5498 40.0472C15.6434 40.2189 15.7141 40.4022 15.7599 40.5923L16.0516 40.522ZM16.124 41.1021C16.1227 40.9063 16.0983 40.7113 16.0514 40.5212L15.7601 40.5931C15.8014 40.7603 15.8228 40.9319 15.824 41.1042L16.124 41.1021ZM15.9425 42.2048C16.073 41.8511 16.1346 41.4757 16.1239 41.0989L15.8241 41.1074C15.8337 41.4459 15.7783 41.7832 15.661 42.1009L15.9425 42.2048ZM15.5504 42.9103C15.7145 42.6958 15.8464 42.4585 15.942 42.206L15.6615 42.0997C15.5762 42.325 15.4585 42.5367 15.3121 42.728L15.5504 42.9103ZM15.1274 43.3124C15.2872 43.2004 15.4294 43.0653 15.5495 42.9114L15.313 42.7268C15.2112 42.8573 15.0906 42.9718 14.9551 43.0668L15.1274 43.3124Z" fill="#6C6464"/>
</svg>
