<svg width="60" height="60" viewBox="0 0 60 60" fill="none" xmlns="http://www.w3.org/2000/svg">
<rect x="1" y="1" width="58" height="58" rx="4" fill="white" fill-opacity="0.5" stroke="#999999" stroke-width="2"/>
<path fill-rule="evenodd" clip-rule="evenodd" d="M23.3991 23.6962L14.4542 27.3777L12.6543 26.6687L9 17.8329L11.5089 16.7966L13.7179 22.1144C15.2007 18.4034 17.8977 15.3045 21.3686 13.3237C24.8394 11.3428 28.8792 10.5969 32.8286 11.2076C36.778 11.8184 40.4038 13.7498 43.1142 16.6866C45.8245 19.6234 47.4594 23.3921 47.752 27.3777H45.0249C44.7129 23.9723 43.2424 20.7769 40.8589 18.3248C38.4754 15.8727 35.3229 14.3122 31.9277 13.9038C28.5326 13.4953 25.1 14.2636 22.2029 16.0805C19.3058 17.8973 17.1194 20.6528 16.0086 23.8871L22.3355 21.16L23.3991 23.6962ZM47.3457 34.0631L51 42.8716L48.4911 44.0715L46.2548 38.6173C44.7602 42.3429 42.0436 45.4497 38.5506 47.428C35.0577 49.4062 30.9961 50.1383 27.0323 49.5041C23.0685 48.8699 19.438 46.907 16.7367 43.9377C14.0354 40.9684 12.4237 37.1691 12.1662 33.1631L14.8933 33.1631C14.9009 36.6741 16.1423 38.7073 18.4003 41.3958C20.6584 44.0844 23.7896 45.8939 27.2465 46.5079C30.7034 47.122 34.2662 46.5016 37.3121 44.7552C40.358 43.0087 42.6932 40.2474 43.9095 36.9538L37.7736 39.49L36.71 36.9811L45.5731 33.2995L47.3457 34.0631Z" fill="#6C6464"/>
<path d="M14.4542 27.3777L14.1793 28.0755L14.4603 28.1862L14.7396 28.0713L14.4542 27.3777ZM23.3991 23.6962L23.6845 24.3897L24.3827 24.1024L24.0907 23.4061L23.3991 23.6962ZM12.6543 26.6687L11.9612 26.9553L12.083 27.2497L12.3794 27.3665L12.6543 26.6687ZM9 17.8329L8.71368 17.1397L8.02017 17.4262L8.30694 18.1195L9 17.8329ZM11.5089 16.7966L12.2016 16.5089L11.9144 15.8177L11.2226 16.1034L11.5089 16.7966ZM13.7179 22.1144L13.0253 22.4021L13.7313 24.102L14.4143 22.3927L13.7179 22.1144ZM21.3686 13.3237L21.7403 13.9751L21.7403 13.9751L21.3686 13.3237ZM32.8286 11.2076L32.714 11.9488L32.714 11.9488L32.8286 11.2076ZM43.1142 16.6866L42.563 17.1952L42.563 17.1952L43.1142 16.6866ZM47.752 27.3777V28.1277H48.5591L48.5 27.3228L47.752 27.3777ZM45.0249 27.3777L44.2781 27.4462L44.3405 28.1277H45.0249V27.3777ZM40.8589 18.3248L41.3967 17.8021L41.3967 17.8021L40.8589 18.3248ZM22.2029 16.0805L21.8044 15.4451L21.8044 15.4451L22.2029 16.0805ZM16.0086 23.8871L15.2993 23.6434L14.7486 25.2469L16.3055 24.5758L16.0086 23.8871ZM22.3355 21.16L23.0271 20.8699L22.7342 20.1714L22.0386 20.4712L22.3355 21.16ZM51 42.8716L51.3236 43.5482L51.9653 43.2413L51.6928 42.5842L51 42.8716ZM47.3457 34.0631L48.0384 33.7757L47.9219 33.4946L47.6424 33.3743L47.3457 34.0631ZM48.4911 44.0715L47.7971 44.356L48.0984 45.0907L48.8147 44.7481L48.4911 44.0715ZM46.2548 38.6173L46.9488 38.3328L46.2473 36.6218L45.5588 38.3381L46.2548 38.6173ZM38.5506 47.428L38.9202 48.0806L38.9202 48.0806L38.5506 47.428ZM27.0323 49.5041L27.1508 48.7635L27.1508 48.7635L27.0323 49.5041ZM16.7367 43.9377L17.2915 43.433L17.2915 43.433L16.7367 43.9377ZM12.1662 33.1631L12.1662 32.4131L11.3664 32.4131L11.4177 33.2112L12.1662 33.1631ZM14.8933 33.1631L15.6433 33.1615L15.6416 32.4131L14.8933 32.4131L14.8933 33.1631ZM18.4003 41.3958L18.9747 40.9135L18.9747 40.9135L18.4003 41.3958ZM27.2465 46.5079L27.3777 45.7695L27.3777 45.7695L27.2465 46.5079ZM37.3121 44.7552L37.6851 45.4058L37.6851 45.4058L37.3121 44.7552ZM43.9095 36.9538L44.6131 37.2136L45.2068 35.606L43.6231 36.2607L43.9095 36.9538ZM37.7736 39.49L37.0831 39.7827L37.3732 40.467L38.0601 40.1831L37.7736 39.49ZM36.71 36.9811L36.4223 36.2884L35.7246 36.5782L36.0195 37.2738L36.71 36.9811ZM45.5731 33.2995L45.8698 32.6107L45.5784 32.4851L45.2854 32.6069L45.5731 33.2995ZM14.7396 28.0713L23.6845 24.3897L23.1136 23.0026L14.1687 26.6842L14.7396 28.0713ZM12.3794 27.3665L14.1793 28.0755L14.7291 26.6799L12.9292 25.9709L12.3794 27.3665ZM8.30694 18.1195L11.9612 26.9553L13.3474 26.382L9.69306 17.5463L8.30694 18.1195ZM11.2226 16.1034L8.71368 17.1397L9.28632 18.5261L11.7952 17.4898L11.2226 16.1034ZM14.4105 21.8267L12.2016 16.5089L10.8163 17.0843L13.0253 22.4021L14.4105 21.8267ZM20.9968 12.6723C17.3786 14.7372 14.5672 17.9676 13.0214 21.8361L14.4143 22.3927C15.8343 18.8392 18.4168 15.8719 21.7403 13.9751L20.9968 12.6723ZM32.9433 10.4664C28.8263 9.82975 24.615 10.6073 20.9968 12.6723L21.7403 13.9751C25.0639 12.0782 28.9322 11.364 32.714 11.9488L32.9433 10.4664ZM43.6653 16.1779C40.8399 13.1165 37.0603 11.1031 32.9433 10.4664L32.714 11.9488C36.4958 12.5337 39.9677 14.3831 42.563 17.1952L43.6653 16.1779ZM48.5 27.3228C48.195 23.168 46.4907 19.2393 43.6653 16.1779L42.563 17.1952C45.1583 20.0074 46.7239 23.6162 47.004 27.4326L48.5 27.3228ZM45.0249 28.1277H47.752V26.6277H45.0249V28.1277ZM40.3211 18.8476C42.585 21.1766 43.9817 24.2117 44.2781 27.4462L45.7718 27.3093C45.4441 23.733 43.8999 20.3772 41.3967 17.8021L40.3211 18.8476ZM31.8382 14.6484C35.063 15.0363 38.0572 16.5185 40.3211 18.8476L41.3967 17.8021C38.8935 15.2269 35.5829 13.5881 32.0173 13.1591L31.8382 14.6484ZM22.6013 16.7159C25.3531 14.9902 28.6134 14.2605 31.8382 14.6484L32.0173 13.1591C28.4517 12.7302 24.8469 13.5371 21.8044 15.4451L22.6013 16.7159ZM16.718 24.1307C17.773 21.0587 19.8496 18.4415 22.6013 16.7159L21.8044 15.4451C18.7619 17.3531 16.4658 20.2469 15.2993 23.6434L16.718 24.1307ZM22.0386 20.4712L15.7118 23.1983L16.3055 24.5758L22.6324 21.8487L22.0386 20.4712ZM24.0907 23.4061L23.0271 20.8699L21.6439 21.45L22.7074 23.9862L24.0907 23.4061ZM51.6928 42.5842L48.0384 33.7757L46.6529 34.3505L50.3072 43.159L51.6928 42.5842ZM48.8147 44.7481L51.3236 43.5482L50.6764 42.195L48.1675 43.3949L48.8147 44.7481ZM45.5609 38.9018L47.7971 44.356L49.185 43.787L46.9488 38.3328L45.5609 38.9018ZM38.9202 48.0806C42.5612 46.0185 45.393 42.78 46.9509 38.8966L45.5588 38.3381C44.1275 41.9058 41.5259 44.881 38.181 46.7754L38.9202 48.0806ZM26.9138 50.2446C31.0456 50.9057 35.2793 50.1426 38.9202 48.0806L38.181 46.7754C34.8361 48.6698 30.9466 49.3708 27.1508 48.7635L26.9138 50.2446ZM16.182 44.4424C18.9977 47.5376 22.782 49.5836 26.9138 50.2446L27.1508 48.7635C23.355 48.1562 19.8783 46.2765 17.2915 43.433L16.182 44.4424ZM11.4177 33.2112C11.6862 37.3869 13.3662 41.3473 16.182 44.4424L17.2915 43.433C14.7047 40.5896 13.1613 36.9512 12.9146 33.115L11.4177 33.2112ZM14.8933 32.4131L12.1662 32.4131L12.1662 33.9131L14.8933 33.9131L14.8933 32.4131ZM18.9747 40.9135C17.8567 39.5824 17.0342 38.4635 16.4836 37.273C15.9398 36.0975 15.6469 34.8198 15.6433 33.1615L14.1433 33.1647C14.1473 35.0175 14.4788 36.5119 15.1222 37.9028C15.7587 39.2788 16.6859 40.5208 17.826 41.8782L18.9747 40.9135ZM27.3777 45.7695C24.0939 45.1862 21.1196 43.4674 18.9747 40.9135L17.826 41.8782C20.1972 44.7015 23.4852 46.6016 27.1153 47.2464L27.3777 45.7695ZM36.939 44.1045C34.0457 45.7635 30.6614 46.3528 27.3777 45.7695L27.1153 47.2464C30.7454 47.8912 34.4867 47.2397 37.6851 45.4058L36.939 44.1045ZM43.206 36.6939C42.0506 39.8226 39.8323 42.4456 36.939 44.1045L37.6851 45.4058C40.8836 43.5719 43.3358 40.6722 44.6131 37.2136L43.206 36.6939ZM38.0601 40.1831L44.196 37.6469L43.6231 36.2607L37.4871 38.7969L38.0601 40.1831ZM36.0195 37.2738L37.0831 39.7827L38.4641 39.1973L37.4005 36.6883L36.0195 37.2738ZM45.2854 32.6069L36.4223 36.2884L36.9977 37.6737L45.8608 33.9921L45.2854 32.6069ZM47.6424 33.3743L45.8698 32.6107L45.2764 33.9883L47.049 34.7519L47.6424 33.3743Z" fill="#6C6464"/>
</svg>
