<svg width="60" height="60" viewBox="0 0 60 60" fill="none" xmlns="http://www.w3.org/2000/svg">
<rect x="1" y="1" width="58" height="58" rx="4" fill="white" fill-opacity="0.5" stroke="#999999" stroke-width="2"/>
<path fill-rule="evenodd" clip-rule="evenodd" d="M46.527 23.8646L55 25.5591V35.4409L46.527 37.1354L51.3249 44.3221L44.3221 51.3249L37.1354 46.527L35.4409 55H25.5591L23.8646 46.527L16.6779 51.3249L9.6751 44.3221L14.473 37.1354L6 35.4409V25.5591L14.473 23.8646L9.6751 16.6779L16.6779 9.6751L23.8646 14.473L25.5591 6H35.4409L37.1354 14.473L44.3221 9.6751L51.3249 16.6779L46.527 23.8646ZM43.3217 34.2157L51.4884 32.5621V28.4788L43.3217 26.8249L42.2191 24.1709L46.8946 17.1679L43.975 14.2484L36.9722 18.9237L34.3179 17.8213L32.6643 9.65466H28.581L26.9271 17.8213L24.2728 18.9237L17.27 14.2484L14.3503 17.1679L19.0258 24.1709L17.9233 26.8249L9.7566 28.4788V32.5621L17.9233 34.2157L19.0258 36.87L14.3503 43.873L17.27 46.7925L24.2728 42.117L26.9271 43.2195L28.581 51.3862H32.6643L34.3179 43.2195L36.9722 42.117L43.975 46.7925L46.8946 43.873L42.2191 36.87L43.3217 34.2157ZM26.609 24.6771C27.7606 23.9076 29.1146 23.4968 30.4996 23.4968C32.3553 23.5022 34.1334 24.2418 35.4455 25.5539C36.7577 26.866 37.4973 28.6442 37.5027 30.4998C37.5027 31.8848 37.0918 33.2389 36.3223 34.3905C35.5528 35.5421 34.4592 36.4397 33.1796 36.9697C31.9 37.4998 30.4918 37.6384 29.1334 37.3682C27.7749 37.098 26.5271 36.4311 25.5478 35.4517C24.5684 34.4723 23.9014 33.2245 23.6312 31.8661C23.361 30.5076 23.4997 29.0995 24.0297 27.8199C24.5597 26.5402 25.4573 25.4466 26.609 24.6771ZM28.5599 33.4025C29.134 33.7862 29.8091 33.991 30.4996 33.991C30.9589 33.9937 31.4142 33.9053 31.839 33.7308C32.2638 33.5563 32.6497 33.2994 32.9745 32.9746C33.2992 32.6499 33.5561 32.2639 33.7306 31.8391C33.9051 31.4143 33.9935 30.959 33.9908 30.4998C33.9908 29.8093 33.786 29.1342 33.4024 28.5601C33.0188 27.9859 32.4737 27.5385 31.8357 27.2743C31.1978 27.0101 30.4957 26.941 29.8185 27.0757C29.1413 27.2104 28.5193 27.5429 28.031 28.0312C27.5428 28.5195 27.2102 29.1414 27.0755 29.8187C26.9408 30.4959 27.0099 31.198 27.2741 31.8359C27.5384 32.4738 27.9858 33.0189 28.5599 33.4025Z" fill="#6C6464"/>
</svg>
