<svg width="60" height="60" viewBox="0 0 60 60" fill="none" xmlns="http://www.w3.org/2000/svg">
<rect x="1" y="1" width="58" height="58" rx="4" fill="white" fill-opacity="0.5" stroke="#999999" stroke-width="2"/>
<path fill-rule="evenodd" clip-rule="evenodd" d="M45.8414 41.5452C48.5371 38.1095 50.0015 33.8683 50 29.5013C50.0003 25.2377 48.6032 21.0916 46.0227 17.6977C43.4423 14.3038 39.8206 11.8491 35.7122 10.7095C31.6038 9.5699 27.2351 9.80817 23.2751 11.3878C19.315 12.9675 15.9818 15.8015 13.7857 19.456V12.787H11V22.537L12.3929 23.9298H22.1429V21.1441H16.0449C17.9057 17.9266 20.7845 15.4201 24.2273 14.0197C27.6702 12.6194 31.4813 12.4049 35.0596 13.4101C38.6378 14.4153 41.7797 16.583 43.9897 19.5714C46.1997 22.5597 47.3521 26.1987 47.2651 29.9145C47.1782 33.6302 45.8568 37.2114 43.5095 40.0931C41.1621 42.9748 37.9223 44.9932 34.3009 45.8299C30.6795 46.6666 26.8827 46.2741 23.5091 44.7142C20.1354 43.1544 17.377 40.5159 15.6689 37.2149L13.1979 38.5019C15.2121 42.3767 18.4687 45.4633 22.4458 47.2671C26.423 49.0708 30.8905 49.4873 35.1326 48.4498C39.3746 47.4124 43.1456 44.981 45.8414 41.5452ZM36.4782 38.8447L38.4505 36.8724L30.5 28.9248V18.3586H27.7143V29.5014L28.121 30.4876L36.4782 38.8447Z" fill="#6C6464"/>
<path d="M50 29.5013L49.5 29.5012L49.5 29.5014L50 29.5013ZM46.0227 17.6977L45.6247 18.0003L45.6247 18.0003L46.0227 17.6977ZM35.7122 10.7095L35.8458 10.2277L35.8458 10.2277L35.7122 10.7095ZM23.2751 11.3878L23.4603 11.8523L23.2751 11.3878ZM13.7857 19.456H13.2857V21.2587L14.2143 19.7135L13.7857 19.456ZM13.7857 12.787H14.2857V12.287H13.7857V12.787ZM11 12.787V12.287H10.5V12.787H11ZM11 22.537H10.5V22.7441L10.6464 22.8905L11 22.537ZM12.3929 23.9298L12.0393 24.2834L12.1858 24.4298H12.3929V23.9298ZM22.1429 23.9298V24.4298H22.6429V23.9298H22.1429ZM22.1429 21.1441H22.6429V20.6441H22.1429V21.1441ZM16.0449 21.1441L15.6121 20.8938L15.1782 21.6441H16.0449V21.1441ZM24.2273 14.0197L24.4157 14.4829L24.4157 14.4829L24.2273 14.0197ZM35.0596 13.4101L35.1948 12.9287L35.1948 12.9287L35.0596 13.4101ZM43.9897 19.5714L43.5877 19.8687L43.5877 19.8687L43.9897 19.5714ZM43.5095 40.0931L43.8971 40.4089L43.8971 40.4089L43.5095 40.0931ZM23.5091 44.7142L23.2992 45.1681L23.2992 45.1681L23.5091 44.7142ZM15.6689 37.2149L16.1129 36.9851L15.8825 36.5399L15.4379 36.7714L15.6689 37.2149ZM13.1979 38.5019L12.967 38.0584L12.5239 38.2892L12.7543 38.7325L13.1979 38.5019ZM22.4458 47.2671L22.6524 46.8117L22.6524 46.8117L22.4458 47.2671ZM38.4505 36.8724L38.804 37.226L39.1576 36.8724L38.804 36.5188L38.4505 36.8724ZM36.4782 38.8447L36.1246 39.1983L36.4782 39.5518L36.8317 39.1983L36.4782 38.8447ZM30.5 28.9248H30V29.1319L30.1465 29.2784L30.5 28.9248ZM30.5 18.3586H31V17.8586H30.5V18.3586ZM27.7143 18.3586V17.8586H27.2143V18.3586H27.7143ZM27.7143 29.5014H27.2143V29.6005L27.2521 29.6921L27.7143 29.5014ZM28.121 30.4876L27.6588 30.6782L27.6969 30.7705L27.7675 30.8411L28.121 30.4876ZM49.5 29.5014C49.5015 33.7565 48.0746 37.889 45.448 41.2366L46.2347 41.8539C48.9996 38.3301 50.5016 33.9801 50.5 29.5011L49.5 29.5014ZM45.6247 18.0003C48.139 21.3072 49.5003 25.347 49.5 29.5012L50.5 29.5013C50.5003 25.1285 49.0674 20.876 46.4208 17.3951L45.6247 18.0003ZM35.5786 11.1913C39.5816 12.3017 43.1104 14.6934 45.6247 18.0003L46.4208 17.3951C43.7741 13.9141 40.0596 11.3965 35.8458 10.2277L35.5786 11.1913ZM23.4603 11.8523C27.3189 10.3131 31.5755 10.0809 35.5786 11.1913L35.8458 10.2277C31.6321 9.05887 27.1514 9.30325 23.0898 10.9234L23.4603 11.8523ZM14.2143 19.7135C16.354 16.1528 19.6018 13.3914 23.4603 11.8523L23.0898 10.9234C19.0282 12.5436 15.6095 15.4503 13.3571 19.1984L14.2143 19.7135ZM13.2857 12.787V19.456H14.2857V12.787H13.2857ZM11 13.287H13.7857V12.287H11V13.287ZM11.5 22.537V12.787H10.5V22.537H11.5ZM12.7464 23.5763L11.3536 22.1834L10.6464 22.8905L12.0393 24.2834L12.7464 23.5763ZM22.1429 23.4298H12.3929V24.4298H22.1429V23.4298ZM21.6429 21.1441V23.9298H22.6429V21.1441H21.6429ZM16.0449 21.6441H22.1429V20.6441H16.0449V21.6441ZM24.039 13.5566C20.4932 14.9988 17.5284 17.5802 15.6121 20.8938L16.4778 21.3944C18.2829 18.2731 21.0757 15.8414 24.4157 14.4829L24.039 13.5566ZM35.1948 12.9287C31.5096 11.8935 27.5847 12.1144 24.039 13.5566L24.4157 14.4829C27.7557 13.1244 31.453 12.9163 34.9243 13.8914L35.1948 12.9287ZM44.3917 19.2741C42.1157 16.1964 38.8799 13.964 35.1948 12.9287L34.9243 13.8914C38.3957 14.8666 41.4437 16.9696 43.5877 19.8687L44.3917 19.2741ZM47.765 29.9262C47.8545 26.0994 46.6677 22.3517 44.3917 19.2741L43.5877 19.8687C45.7317 22.7678 46.8496 26.298 46.7653 29.9028L47.765 29.9262ZM43.8971 40.4089C46.3146 37.441 47.6754 33.753 47.765 29.9262L46.7653 29.9028C46.6809 33.5075 45.399 36.9817 43.1218 39.7773L43.8971 40.4089ZM34.4135 46.3171C38.143 45.4553 41.4796 43.3767 43.8971 40.4089L43.1218 39.7773C40.8446 42.5729 37.7015 44.531 34.1883 45.3427L34.4135 46.3171ZM23.2992 45.1681C26.7736 46.7745 30.6839 47.1788 34.4135 46.3171L34.1883 45.3427C30.6752 46.1545 26.9917 45.7737 23.7189 44.2604L23.2992 45.1681ZM15.2248 37.4447C16.984 40.8443 19.8248 43.5616 23.2992 45.1681L23.7189 44.2604C20.4461 42.7471 17.7701 40.1875 16.1129 36.9851L15.2248 37.4447ZM13.4289 38.9454L15.8998 37.6584L15.4379 36.7714L12.967 38.0584L13.4289 38.9454ZM22.6524 46.8117C18.7772 45.0542 15.6041 42.0468 13.6416 38.2713L12.7543 38.7325C14.8201 42.7067 18.1602 45.8724 22.2393 47.7224L22.6524 46.8117ZM35.0138 47.9642C30.8805 48.975 26.5275 48.5692 22.6524 46.8117L22.2393 47.7224C26.3185 49.5724 30.9005 49.9996 35.2513 48.9355L35.0138 47.9642ZM45.448 41.2366C42.8214 44.5842 39.147 46.9533 35.0138 47.9642L35.2513 48.9355C39.6022 47.8715 43.4699 45.3777 46.2347 41.8539L45.448 41.2366ZM38.0969 36.5189L36.1246 38.4912L36.8317 39.1983L38.804 37.226L38.0969 36.5189ZM30.1465 29.2784L38.097 37.226L38.804 36.5188L30.8535 28.5712L30.1465 29.2784ZM30 18.3586V28.9248H31V18.3586H30ZM27.7143 18.8586H30.5V17.8586H27.7143V18.8586ZM28.2143 29.5014V18.3586H27.2143V29.5014H28.2143ZM28.5833 30.2969L28.1766 29.3108L27.2521 29.6921L27.6588 30.6782L28.5833 30.2969ZM36.8317 38.4912L28.4746 30.134L27.7675 30.8411L36.1246 39.1983L36.8317 38.4912Z" fill="#6C6464"/>
</svg>
